<svg width="12" height="12" viewBox="0 0 12 12" fill="none" xmlns="http://www.w3.org/2000/svg">
<path d="M0.666992 6.75195H4.66699C4.78256 6.75202 4.8945 6.78642 4.98926 6.84961L5.07812 6.92188C5.18711 7.03086 5.24796 7.17889 5.24805 7.33301L5.24805 11.333C5.24805 11.4488 5.21374 11.5614 5.15039 11.6562L5.07812 11.7441C4.96914 11.8531 4.82111 11.915 4.66699 11.915H0.666992C0.551275 11.915 0.438614 11.8807 0.34375 11.8174L0.255859 11.7441C0.146796 11.6351 0.0849609 11.4872 0.0849609 11.333L0.0849609 7.33301C0.0850255 7.2175 0.119489 7.10547 0.182617 7.01074L0.255859 6.92188C0.364892 6.81302 0.512907 6.75195 0.666992 6.75195ZM9.33301 6.75195C10.7566 6.75195 11.9149 7.90949 11.915 9.33301C11.915 10.7567 10.7567 11.915 9.33301 11.915C7.90949 11.9149 6.75195 10.7566 6.75195 9.33301C6.75213 7.9096 7.9096 6.75213 9.33301 6.75195ZM1.24805 10.752H4.08496L4.08496 7.91504H1.24805L1.24805 10.752ZM9.33301 7.91504C8.55093 7.91522 7.91522 8.55093 7.91504 9.33301C7.91504 10.1152 8.55082 10.7518 9.33301 10.752C10.1153 10.752 10.752 10.1153 10.752 9.33301C10.7518 8.55082 10.1152 7.91504 9.33301 7.91504ZM0.666992 0.0849609L4.66699 0.0849609C4.7825 0.0850255 4.89453 0.119489 4.98926 0.182617L5.07812 0.255859C5.18699 0.364892 5.24805 0.512906 5.24805 0.666992V4.66699C5.24796 4.82111 5.18711 4.96914 5.07812 5.07812C4.96914 5.18711 4.82111 5.24796 4.66699 5.24805H0.666992C0.551214 5.24805 0.438646 5.21374 0.34375 5.15039L0.255859 5.07812C0.146872 4.96914 0.0850471 4.82111 0.0849609 4.66699L0.0849609 0.666992L0.0966797 0.552734C0.111584 0.478176 0.140422 0.407002 0.182617 0.34375L0.255859 0.255859C0.337656 0.174063 0.440951 0.119025 0.552734 0.0966797L0.666992 0.0849609ZM7.33301 0.0849609L11.333 0.0849609C11.4487 0.0849609 11.5614 0.119334 11.6562 0.182617L11.7441 0.255859C11.8532 0.364923 11.915 0.512753 11.915 0.666992V4.66699C11.915 4.7825 11.8805 4.89453 11.8174 4.98926L11.7441 5.07813C11.6351 5.18699 11.4871 5.24805 11.333 5.24805L7.33301 5.24805C7.21744 5.24798 7.1055 5.21358 7.01074 5.15039L6.92188 5.07812C6.81289 4.96914 6.75204 4.82111 6.75195 4.66699V0.666992C6.75195 0.551214 6.78626 0.438646 6.84961 0.34375L6.92188 0.255859C7.03086 0.146872 7.17889 0.0850471 7.33301 0.0849609ZM1.24805 4.08496H4.08496V1.24805L1.24805 1.24805L1.24805 4.08496ZM7.91504 4.08496L10.752 4.08496V1.24805L7.91504 1.24805V4.08496Z" fill="black" fill-opacity="0.6" stroke="white" stroke-width="0.170213"/>
</svg>
