<svg width="12" height="14" viewBox="0 0 12 14" fill="none" xmlns="http://www.w3.org/2000/svg">
<path d="M11.125 12.0621H0.875C0.80625 12.0621 0.75 12.1184 0.75 12.1871V13.1246C0.75 13.1934 0.80625 13.2496 0.875 13.2496H11.125C11.1938 13.2496 11.25 13.1934 11.25 13.1246V12.1871C11.25 12.1184 11.1938 12.0621 11.125 12.0621ZM11.125 0.749603L0.875 0.749603C0.80625 0.749603 0.75 0.805853 0.75 0.874603L0.75 1.8121C0.75 1.88085 0.80625 1.9371 0.875 1.9371L11.125 1.9371C11.1938 1.9371 11.25 1.88085 11.25 1.8121V0.874603C11.25 0.805853 11.1938 0.749603 11.125 0.749603ZM7.54375 4.90585C7.6375 4.90585 7.69063 4.79648 7.63281 4.72304L6.05781 2.72929C6.04739 2.7158 6.03401 2.70488 6.01871 2.69736C6.0034 2.68985 5.98658 2.68594 5.96953 2.68594C5.95248 2.68594 5.93566 2.68985 5.92036 2.69736C5.90505 2.70488 5.89167 2.7158 5.88125 2.72929L4.30625 4.72304C4.29313 4.73972 4.28497 4.75976 4.28271 4.78087C4.28046 4.80197 4.28419 4.82328 4.29348 4.84236C4.30278 4.86144 4.31726 4.87752 4.33527 4.88875C4.35328 4.89998 4.37409 4.9059 4.39531 4.90585H5.4375L5.4375 9.09335H4.45625C4.3625 9.09335 4.30938 9.20273 4.36719 9.27617L5.94219 11.2684C5.9875 11.3262 6.075 11.3262 6.11875 11.2684L7.69375 9.27617C7.75156 9.20273 7.7 9.09335 7.60469 9.09335H6.5625L6.5625 4.90585H7.54375Z" fill="black" fill-opacity="0.6"/>
</svg>
