<svg width="142" height="124" viewBox="0 0 142 124" fill="none" xmlns="http://www.w3.org/2000/svg">
<path fill-rule="evenodd" clip-rule="evenodd" d="M107.085 0.980469L107.528 39.8915L73.5899 56.1834L73.1714 19.444L107.085 0.980469Z" fill="#73CEC0"/>
<path fill-rule="evenodd" clip-rule="evenodd" d="M141.107 62.2946L107.51 81.5116L73.8936 62.2642L107.493 44.6152L141.107 62.2946Z" fill="#73CEC0"/>
<path fill-rule="evenodd" clip-rule="evenodd" d="M67.9176 62.2946L34.3209 81.5116L0.704102 62.2642L34.3035 44.6152L67.9176 62.2946Z" fill="#73CEC0"/>
<path fill-rule="evenodd" clip-rule="evenodd" d="M33.9434 0.821289L68.8144 18.0916L67.9229 55.7274L34.998 39.4211L33.9434 0.821289Z" fill="#73CEC0"/>
<path fill-rule="evenodd" clip-rule="evenodd" d="M108.034 123.179L73.1633 105.908L74.0549 68.2725L106.98 84.5791L108.034 123.179Z" fill="#73CEC0"/>
<path fill-rule="evenodd" clip-rule="evenodd" d="M35.1476 123.529L34.7043 84.6181L68.6431 68.3262L69.0616 105.065L35.1476 123.529Z" fill="#73CEC0"/>
</svg>
