<svg width="26" height="26" viewBox="0 0 26 26" fill="none" xmlns="http://www.w3.org/2000/svg">
<path d="M2.16683 12.9999C2.16683 14.4226 2.44704 15.8313 2.99147 17.1457C3.53589 18.46 4.33387 19.6543 5.33984 20.6602C6.34581 21.6662 7.54006 22.4642 8.85443 23.0086C10.1688 23.553 11.5775 23.8333 13.0002 23.8333C14.4228 23.8333 15.8315 23.553 17.1459 23.0086C18.4603 22.4642 19.6545 21.6662 20.6605 20.6602C21.6665 19.6543 22.4644 18.46 23.0089 17.1457C23.5533 15.8313 23.8335 14.4226 23.8335 12.9999L13.0002 12.9999H2.16683Z" fill="white"/>
<path d="M23.8334 12.9998C23.8334 11.5772 23.5532 10.1685 23.0088 8.8541C22.4644 7.53974 21.6664 6.34548 20.6604 5.33951C19.6544 4.33355 18.4602 3.53557 17.1458 2.99114C15.8315 2.44672 14.4227 2.1665 13.0001 2.1665C11.5774 2.1665 10.1687 2.44672 8.85434 2.99114C7.53998 3.53557 6.34573 4.33355 5.33976 5.33951C4.33379 6.34548 3.53581 7.53974 2.99139 8.8541C2.44696 10.1685 2.16675 11.5772 2.16675 12.9998L13.0001 12.9998H23.8334Z" fill="#CD3131"/>
<circle cx="13.0002" cy="12.9996" r="3.25" fill="white"/>
<path d="M13.0001 23.8332C18.9833 23.8332 23.8334 18.9831 23.8334 12.9998C23.8334 7.01659 18.9833 2.1665 13.0001 2.1665C7.01683 2.1665 2.16675 7.01659 2.16675 12.9998C2.16675 18.9831 7.01683 23.8332 13.0001 23.8332Z" stroke="#173EA5" stroke-width="1.5" stroke-linecap="round" stroke-linejoin="round"/>
<path d="M13 16.2499C13.862 16.2499 14.6886 15.9075 15.2981 15.298C15.9076 14.6885 16.25 13.8618 16.25 12.9999C16.25 12.1379 15.9076 11.3113 15.2981 10.7018C14.6886 10.0923 13.862 9.74988 13 9.74988C12.138 9.74988 11.3114 10.0923 10.7019 10.7018C10.0924 11.3113 9.75 12.1379 9.75 12.9999C9.75 13.8618 10.0924 14.6885 10.7019 15.298C11.3114 15.9075 12.138 16.2499 13 16.2499V16.2499Z" stroke="#173EA5" stroke-width="1.5" stroke-linecap="round" stroke-linejoin="round"/>
<path d="M2.16675 12.9998H9.75008M16.2501 12.9998H23.8334" stroke="#173EA5" stroke-width="1.5"/>
</svg>
