<svg width="24" height="24" viewBox="0 0 24 24" fill="none" xmlns="http://www.w3.org/2000/svg">
<path d="M20.8399 4.60999C20.3291 4.099 19.7227 3.69364 19.0552 3.41708C18.3878 3.14052 17.6724 2.99817 16.9499 2.99817C16.2274 2.99817 15.512 3.14052 14.8445 3.41708C14.1771 3.69364 13.5706 4.099 13.0599 4.60999L11.9999 5.66999L10.9399 4.60999C9.90818 3.5783 8.50891 2.9987 7.04987 2.9987C5.59084 2.9987 4.19157 3.5783 3.15987 4.60999C2.12818 5.64169 1.54858 7.04096 1.54858 8.49999C1.54858 9.95903 2.12818 11.3583 3.15987 12.39L4.21987 13.45L11.9999 21.23L19.7799 13.45L20.8399 12.39C21.3509 11.8792 21.7562 11.2728 22.0328 10.6053C22.3094 9.93789 22.4517 9.22248 22.4517 8.49999C22.4517 7.77751 22.3094 7.0621 22.0328 6.39464C21.7562 5.72718 21.3509 5.12075 20.8399 4.60999V4.60999Z" stroke="#808080" stroke-width="1.5" stroke-linecap="round" stroke-linejoin="round"/>
</svg>
