<svg width="12" height="12" viewBox="0 0 12 12" fill="none" xmlns="http://www.w3.org/2000/svg">
<path d="M6.00012 0.500031C5.17762 0.500031 4.50012 1.17753 4.50012 2.00003C4.50012 2.17603 4.53712 2.34203 4.59412 2.50003L2.09412 2.50003L2.01562 2.90653L0.515622 10.4065L0.500122 10.453L0.500122 11.5H11.5001V10.453L11.4846 10.4065L9.98462 2.90653L9.90612 2.50003H7.40612C7.46618 2.34007 7.49799 2.17088 7.50012 2.00003C7.50012 1.17753 6.82262 0.500031 6.00012 0.500031ZM6.00012 1.50003C6.28162 1.50003 6.50012 1.71903 6.50012 2.00003C6.50012 2.28153 6.28112 2.50003 6.00012 2.50003C5.71862 2.50003 5.50012 2.28103 5.50012 2.00003C5.50012 1.71853 5.71912 1.50003 6.00012 1.50003ZM2.90612 3.50003L9.09412 3.50003L10.5001 10.5H1.50012L2.90612 3.50003Z" fill="black" fill-opacity="0.6"/>
</svg>
